<?xml version="1.0" encoding="UTF-8" standalone="no"?>
<!DOCTYPE svg PUBLIC "-//W3C//DTD SVG 1.1//EN" "http://www.w3.org/Graphics/SVG/1.1/DTD/svg11.dtd">
<svg width="100%" height="100%" viewBox="0 0 510 510" version="1.1" xmlns="http://www.w3.org/2000/svg" xmlns:xlink="http://www.w3.org/1999/xlink" xml:space="preserve" xmlns:serif="http://www.serif.com/" style="fill-rule:evenodd;clip-rule:evenodd;stroke-linejoin:round;stroke-miterlimit:2;">
    <path id="check-circle-blank" d="M255,0C114.75,0 0,114.75 0,255C0,395.25 114.75,510 255,510C395.25,510 510,395.25 510,255C510,114.75 395.25,0 255,0Z" style="fill:rgb(134,176,237);fill-rule:nonzero;"/>
    <g transform="matrix(0.839504,0,0,0.839504,95.3952,91)">
        <path d="M196.267,21.786C119.92,21.786 55.402,54.691 55.402,93.738C55.402,132.785 119.919,165.69 196.267,165.69C272.615,165.69 337.132,132.785 337.132,93.738C337.132,54.691 272.614,21.786 196.267,21.786Z" style="fill:rgb(255,193,13);fill-rule:nonzero;"/>
    </g>
    <g transform="matrix(0.839504,0,0,0.839504,95.3952,91)">
        <path d="M55.402,141.317L55.402,161.745C55.402,200.791 119.919,233.697 196.267,233.697C272.615,233.697 337.132,200.792 337.132,161.745L337.132,141.317C309.205,169.115 257.164,187.539 196.267,187.539C135.37,187.475 83.265,169.115 55.402,141.317Z" style="fill:white;fill-rule:nonzero;"/>
    </g>
    <g transform="matrix(0.839504,0,0,0.839504,95.3952,91)">
        <path d="M55.402,210.36L55.402,229.819C55.402,268.865 119.919,301.771 196.267,301.771C272.615,301.771 337.132,268.866 337.132,229.819L337.132,210.36C309.205,238.158 257.164,256.582 196.267,256.582C135.37,256.582 83.265,238.158 55.402,210.36Z" style="fill:rgb(134,176,237);fill-rule:nonzero;"/>
    </g>
    <g transform="matrix(0.839504,0,0,0.839504,95.3952,91)">
        <path d="M55.402,278.303L55.402,298.796C55.402,337.842 119.919,370.748 196.267,370.748C272.615,370.748 337.132,337.843 337.132,298.796L337.132,278.303C309.205,306.101 257.164,324.525 196.267,324.525C135.37,324.525 83.265,306.166 55.402,278.303Z" style="fill:white;fill-rule:nonzero;"/>
    </g>
    <g transform="matrix(0.839504,0,0,0.839504,95.3952,91)">
        <path d="M196.267,0C104.986,0 33.616,41.18 33.616,93.737L33.616,298.796C33.616,351.354 105.115,392.533 196.267,392.533C287.548,392.533 358.917,351.353 358.917,298.796L358.917,93.737C358.917,41.18 287.547,0 196.267,0ZM337.131,298.796C337.131,337.843 272.614,370.748 196.266,370.748C119.918,370.748 55.402,337.842 55.402,298.796L55.402,278.303C83.329,306.101 135.37,324.525 196.267,324.525C257.164,324.525 309.269,306.165 337.132,278.303L337.132,298.796L337.131,298.796ZM337.131,229.754C337.131,268.8 272.614,301.706 196.266,301.706C119.918,301.706 55.401,268.736 55.401,229.754L55.401,210.295C83.328,238.093 135.369,256.517 196.266,256.517C257.163,256.517 309.268,238.157 337.131,210.295L337.131,229.754ZM337.131,161.745C337.131,200.791 272.614,233.697 196.266,233.697C119.918,233.697 55.401,200.727 55.401,161.745L55.401,141.317C83.328,169.115 135.369,187.539 196.266,187.539C257.163,187.539 309.268,169.244 337.131,141.317L337.131,161.745ZM196.267,165.689C119.92,165.689 55.402,132.784 55.402,93.737C55.402,54.69 119.919,21.785 196.267,21.785C272.615,21.785 337.132,54.69 337.132,93.737C337.132,132.784 272.614,165.689 196.267,165.689Z" style="fill:rgb(25,79,130);fill-rule:nonzero;"/>
        <path d="M196.267,60.574C206.287,60.574 214.497,66.263 214.497,73.309C214.497,77.576 219.345,80.937 225.422,80.937C231.434,80.937 236.347,77.511 236.347,73.309C236.347,60.638 224.387,49.972 207.903,46.481L207.903,38.853C207.903,34.522 202.861,30.966 196.719,30.966C190.578,30.966 185.535,34.522 185.535,38.853L185.535,46.352C168.792,49.649 156.379,60.51 156.379,73.31C156.379,88.761 174.286,101.367 196.395,101.367C196.524,101.367 196.524,101.367 196.46,101.367C205.834,101.884 214.626,107.314 214.626,114.038C214.626,121.084 206.416,126.773 196.396,126.773C186.376,126.773 178.166,121.084 178.166,114.038C178.166,109.771 173.318,106.41 167.241,106.41C161.229,106.41 156.316,109.836 156.316,114.038C156.316,126.838 168.663,137.699 185.472,140.996L185.472,148.43C185.472,152.761 190.514,156.317 196.656,156.317C202.862,156.317 207.84,152.761 207.84,148.43L207.84,140.866C224.325,137.375 236.284,126.644 236.284,114.038C236.284,98.587 218.377,85.981 196.268,85.981C196.139,85.981 196.139,85.981 196.203,85.981C186.829,85.464 178.037,80.034 178.037,73.31C178.036,66.263 186.246,60.574 196.267,60.574Z" style="fill:rgb(25,79,130);fill-rule:nonzero;"/>
        <path d="M111.515,82.812L97.164,82.812C91.152,82.812 86.239,87.66 86.239,93.737C86.239,99.749 91.087,104.662 97.164,104.662L111.516,104.662C117.528,104.662 122.441,99.814 122.441,93.737C122.376,87.725 117.527,82.812 111.515,82.812Z" style="fill:rgb(25,79,130);fill-rule:nonzero;"/>
        <path d="M295.434,82.812L281.082,82.812C275.07,82.812 270.157,87.66 270.157,93.737C270.157,99.749 275.005,104.662 281.082,104.662L295.434,104.662C301.446,104.662 306.359,99.814 306.359,93.737C306.295,87.725 301.446,82.812 295.434,82.812Z" style="fill:rgb(25,79,130);fill-rule:nonzero;"/>
    </g>
</svg>
